<svg xmlns="http://www.w3.org/2000/svg" viewBox="0 0 257.07 257.29"><defs><style>.cls-1,.cls-3,.cls-4,.cls-5,.cls-6,.cls-7{fill:#fff;}.cls-2{fill:#1d1d1b;}.cls-3,.cls-4{stroke:#1d1d1b;}.cls-3,.cls-6,.cls-7{stroke-linecap:round;}.cls-3,.cls-4,.cls-5,.cls-6,.cls-7{stroke-miterlimit:10;}.cls-3,.cls-4,.cls-5{stroke-width:2px;}.cls-5{stroke:#292320;}.cls-6,.cls-7{stroke:#2b2523;}.cls-6{stroke-width:3px;}</style></defs><g id="Calque_1" data-name="Calque 1"><circle class="cls-1" cx="297.64" cy="306.73" r="124.38" transform="translate(-302.44 121.95) rotate(-45)"/><path class="cls-2" d="M173,298.35c5.78-89.24,101-146,182.26-108,47.51,21.56,78.15,73.16,74.15,125.29-3,52.2-40.29,99.23-90.27,114.23C253.57,456.53,166.81,387.57,173,298.35Zm1,.07c-3.75,48.87,25,97.24,69.6,117.36,76,35.32,165-17.8,170.38-101.22,5.82-83.38-75.2-147.94-155.29-123.12-46.86,14-81.86,58-84.69,107Z" transform="translate(-172.73 -178.36)"/><circle class="cls-1" cx="124.91" cy="128.38" r="110.2"/><path class="cls-2" d="M408.34,306.73c.23,79.52-80.57,135.41-155,107-43.69-16.17-74.08-60.3-73.63-107-.45-46.66,29.94-90.79,73.63-107,74.43-28.44,155.25,27.45,155,107Zm-1,0c.38-43.47-27.83-84.35-68.55-99.35-69-26.28-144,25.9-143.62,99.35-.33,73.46,74.57,125.64,143.62,99.36,40.72-15,68.93-55.88,68.55-99.36Z" transform="translate(-172.73 -178.36)"/></g><g id="Calque_4" data-name="Calque 4"><line class="cls-3" x1="143.1" y1="184.7" x2="163.12" y2="206.73"/><line class="cls-3" x1="158.57" y1="184.35" x2="178.68" y2="205.84"/><line class="cls-3" x1="75.82" y1="149.56" x2="56.76" y2="170.92"/><line class="cls-3" x1="83.62" y1="156.03" x2="70.01" y2="170.96"/><line class="cls-3" x1="33.44" y1="184.35" x2="219.86" y2="184.35"/><line class="cls-3" x1="28.54" y1="171.18" x2="226.49" y2="171.18"/></g><g id="Calque_3" data-name="Calque 3"><path class="cls-4" d="M265.6,298.39c.87-.06,3.23-.32,4.15-1.69.45-.68.19-1.34.17-2.52a23.81,23.81,0,0,0-1-5.73,14.83,14.83,0,0,0-4.9-8,89.5,89.5,0,0,0-11.23-8.07c-2.1-1-10.4-5.43-13.07-6.71s-11.52-5.66-13.63-6.93-7.22-4.11-12.92-8.19a76.58,76.58,0,0,1-8.12-6.73c-1.72-1.74-2.26-2.37-2.26-2.37-1.6-1.81-2-2.83-2.47-2.76s-.64.73-.44,3.78c0,1,0,2.34,0,4,.06,3.8.09,4.31.14,4.83a18.52,18.52,0,0,0,1.35,5.81,17.83,17.83,0,0,0,5,6.75,44.79,44.79,0,0,0,5.72,3.76c1.3.78,3.93,2.31,3.93,2.31a23.43,23.43,0,0,0-5.49-.25c-3.29.63-6.76,1.65-3.41,5.48a13.2,13.2,0,0,0,5.48,3.69,52.54,52.54,0,0,0,9.56,3.14,34.1,34.1,0,0,0,5.63,1.17,13.63,13.63,0,0,0-5.64,1.23c-2.26,1.25-2,3.66-.86,4.35s3.93,2.77,6.46,3.12,15.35.88,15.35.88l2.11.23a3.26,3.26,0,0,0-3.08,1.75,2.17,2.17,0,0,0,1.11,2.68,2,2,0,0,0,.69.15,53.57,53.57,0,0,0,10.26-.48C256.68,296.59,260.37,296.53,265.6,298.39Z" transform="translate(-172.73 -178.36)"/><path class="cls-4" d="M334.8,299.24c-.87-.07-3.23-.33-4.14-1.71-.45-.68-.18-1.33-.16-2.52a23.9,23.9,0,0,1,1-5.72,14.8,14.8,0,0,1,4.93-8,89.88,89.88,0,0,1,11.27-8c2.11-1,10.42-5.39,13.1-6.65s11.55-5.61,13.66-6.87,7.24-4.08,13-8.13a76.81,76.81,0,0,0,8.15-6.69c1.73-1.74,2.27-2.36,2.27-2.36,1.61-1.8,2-2.83,2.48-2.75s.63.73.42,3.78c0,1,0,2.34-.07,4-.07,3.8-.1,4.31-.16,4.83a18.34,18.34,0,0,1-1.37,5.8,17.94,17.94,0,0,1-5,6.73,44.17,44.17,0,0,1-5.74,3.74c-1.3.77-3.94,2.29-3.94,2.29a23.25,23.25,0,0,1,5.49-.23c3.29.64,6.75,1.69,3.38,5.5a13.15,13.15,0,0,1-5.49,3.66,52.65,52.65,0,0,1-9.58,3.1,33.52,33.52,0,0,1-5.63,1.14,13.65,13.65,0,0,1,5.63,1.26c2.25,1.26,2,3.67.85,4.35s-3.95,2.75-6.48,3.1-15.36.8-15.36.8l-2.11.23a3.26,3.26,0,0,1,3.08,1.76,2.17,2.17,0,0,1-1.12,2.67,2,2,0,0,1-.69.15,53.7,53.7,0,0,1-10.27-.53C343.73,297.49,340,297.4,334.8,299.24Z" transform="translate(-172.73 -178.36)"/><path class="cls-5" d="M300.21,340.48s20.76.48,24.42,0,6.27-1.65,10.14-4.45a10.57,10.57,0,0,0,4.4-6.22l.74-64.53-.74-51L315.1,235.87s-10.16-5-14.89-3.81" transform="translate(-172.73 -178.36)"/><path class="cls-5" d="M300.87,340.56s-20.75.42-24.42-.07-6.26-1.67-10.12-4.48a10.62,10.62,0,0,1-4.39-6.24l-.53-64.53.89-51,24,21.65s10.18-4.94,14.9-3.77" transform="translate(-172.73 -178.36)"/><ellipse class="cls-6" cx="110.66" cy="85.92" rx="13.13" ry="12.17"/><ellipse class="cls-6" cx="144.01" cy="85.67" rx="13.13" ry="12.17"/><ellipse class="cls-6" cx="110.66" cy="85.47" rx="16.57" ry="16.85"/><ellipse class="cls-6" cx="143.8" cy="85.02" rx="16.57" ry="16.85"/><polygon class="cls-7" points="127.14 95.79 127.14 95.79 123.36 90.64 127.23 86.77 127.14 95.79"/><polygon class="cls-7" points="127.39 95.77 127.39 95.77 131.17 90.62 127.3 86.75 127.39 95.77"/><ellipse class="cls-7" cx="138.71" cy="82.48" rx="4.08" ry="3.78"/><ellipse class="cls-1" cx="139.92" cy="81.24" rx="2.46" ry="2.28"/><ellipse class="cls-7" cx="114.23" cy="82.83" rx="4.08" ry="3.78"/><ellipse class="cls-1" cx="113.65" cy="81.24" rx="2.46" ry="2.28"/><path class="cls-4" d="M274.87,357.21a3,3,0,0,1-1.94.05,3.12,3.12,0,0,1-1.86-1.83,12.61,12.61,0,0,1-.85-2.64,10.6,10.6,0,0,1,0-4.77,9.8,9.8,0,0,1,3.38-5.19c2.58-2,5.48-2.09,7.94-2.13a13.27,13.27,0,0,1,4.09.43,10,10,0,0,1,5.84,4.08s1.84,2.89,1,8a4.72,4.72,0,0,1-1,2.4l-.14.15c-1,.95-3.29,1.64-4.68.77-1.55-1-1.36-3.49-1.87-3.46s-.21,1.54-1.3,2.78a3.54,3.54,0,0,1-2.75,1.27,3.63,3.63,0,0,1-2.61-1.69c-.69-1.06-.6-2.14-.83-2.14s-.2,1.63-1.3,3A4.18,4.18,0,0,1,274.87,357.21Z" transform="translate(-172.73 -178.36)"/><path class="cls-4" d="M310.77,357.21a3,3,0,0,1-1.95.05,3.09,3.09,0,0,1-1.85-1.83,12.55,12.55,0,0,1-.86-2.64,10.9,10.9,0,0,1,0-4.77,9.86,9.86,0,0,1,3.38-5.19c2.58-2,5.48-2.09,7.94-2.13a13.24,13.24,0,0,1,4.09.43,9.92,9.92,0,0,1,5.84,4.08s1.85,2.89,1,8a4.84,4.84,0,0,1-1,2.4l-.14.15c-.95.95-3.29,1.64-4.68.77-1.54-1-1.36-3.49-1.86-3.46s-.22,1.54-1.3,2.78a3.56,3.56,0,0,1-2.75,1.27,3.65,3.65,0,0,1-2.62-1.69c-.68-1.06-.59-2.14-.83-2.14s-.2,1.63-1.29,3A4.55,4.55,0,0,1,310.77,357.21Z" transform="translate(-172.73 -178.36)"/></g></svg>